<?xml version="1.0" encoding="UTF-8" standalone="no"?>
<!-- Created with Inkscape (http://www.inkscape.org/) -->

<svg
   width="32"
   height="32"
   viewBox="0 0 8.4666665 8.4666667"
   version="1.1"
   id="svg1"
   inkscape:version="1.3.2 (091e20e, 2023-11-25)"
   sodipodi:docname="favicon-karma-matt.svg"
   inkscape:export-filename="new-logo-website-3-matt.png"
   inkscape:export-xdpi="96"
   inkscape:export-ydpi="96"
   xmlns:inkscape="http://www.inkscape.org/namespaces/inkscape"
   xmlns:sodipodi="http://sodipodi.sourceforge.net/DTD/sodipodi-0.dtd"
   xmlns="http://www.w3.org/2000/svg"
   xmlns:svg="http://www.w3.org/2000/svg">
  <sodipodi:namedview
     id="namedview1"
     pagecolor="#ffffff"
     bordercolor="#000000"
     borderopacity="0.25"
     inkscape:showpageshadow="false"
     inkscape:pageopacity="0.0"
     inkscape:pagecheckerboard="0"
     inkscape:deskcolor="#d1d1d1"
     inkscape:document-units="px"
     inkscape:zoom="1.7993082"
     inkscape:cx="87.811529"
     inkscape:cy="115.59999"
     inkscape:window-width="1440"
     inkscape:window-height="847"
     inkscape:window-x="0"
     inkscape:window-y="25"
     inkscape:window-maximized="1"
     inkscape:current-layer="layer1"
     showgrid="false" />
  <defs
     id="defs1" />
  <g
     inkscape:label="Layer 1"
     inkscape:groupmode="layer"
     id="layer1">
    <g
       id="g27"
       transform="matrix(0.17590218,0,0,0.17590218,0.04466266,0.04466266)">
      <g
         id="path18">
        <path
           style="color:#000000;fill:#fdffff;stroke-linejoin:round;-inkscape-stroke:none"
           d="M 46.689104,23.8125 A 22.876604,22.876604 0 0 1 23.8125,46.689104 22.876604,22.876604 0 0 1 0.93589592,23.8125 22.876604,22.876604 0 0 1 23.8125,0.93589592 22.876604,22.876604 0 0 1 46.689104,23.8125 Z"
           id="path22" />
        <path
           style="color:#000000;fill:#0f2c50;stroke-linejoin:round;-inkscape-stroke:none"
           d="m 23.8125,-0.25390625 c -13.277848,0 -24.06640625,10.78855825 -24.06640625,24.06640625 0,13.277848 10.78855825,24.066406 24.06640625,24.066406 13.277848,0 24.066406,-10.788558 24.066406,-24.066406 0,-13.277848 -10.788558,-24.06640625 -24.066406,-24.06640625 z m 0,2.38085935 c 11.990926,0 21.685547,9.6946209 21.685547,21.6855469 0,11.990926 -9.694621,21.685547 -21.685547,21.685547 -11.990926,0 -21.6855469,-9.694621 -21.6855469,-21.685547 0,-11.990926 9.6946209,-21.6855469 21.6855469,-21.6855469 z"
           id="path23" />
      </g>
      <g
         id="g1"
         transform="matrix(0.87813539,0,0,-0.87813539,2.9018957,44.723096)"
         style="stroke-width:2.71171">
        <g
           id="path16">
          <path
             style="color:#000000;fill:#fdffff;stroke-linejoin:round;-inkscape-stroke:none"
             d="M 18.488111,26.409889 C 23.812512,21.561286 35.348226,8.0539936 35.348226,8.0539936 H 12.276798 V 21.561286 Z"
             id="path24" />
          <path
             style="color:#000000;fill:#0f2c50;stroke-linejoin:round;-inkscape-stroke:none"
             d="M 12.277344,6.6972656 A 1.3559914,1.3559914 0 0 0 10.921875,8.0546875 V 21.560547 a 1.3559914,1.3559914 0 0 0 0.521484,1.070312 l 6.210938,4.847657 a 1.3559914,1.3559914 0 0 0 1.746094,-0.06641 C 24.930807,22.375901 36.378906,8.9335938 36.378906,8.9335938 a 1.3559914,1.3559914 0 0 0 -1.03125,-2.2363282 z m 1.355469,2.7128907 H 32.359375 C 29.839099,12.328553 22.879532,20.288169 18.353516,24.585937 l -4.720703,-3.685546 z"
             id="path25" />
        </g>
        <g
           id="path17">
          <path
             style="color:#000000;fill:#0f2c50;stroke-linejoin:round;-inkscape-stroke:none"
             d="M 18.488111,26.409889 35.348226,39.571003 H 12.276798 V 21.561286 Z"
             id="path26" />
          <path
             style="color:#000000;fill:#0f2c50;stroke-linejoin:round;-inkscape-stroke:none"
             d="m 11.681641,20.34375 a 1.3559914,1.3559914 0 0 0 -0.759766,1.216797 v 18.009765 a 1.3559914,1.3559914 0 0 0 1.355469,1.357422 h 23.070312 a 1.3559914,1.3559914 0 0 0 0.833985,-2.425781 L 19.322266,25.341797 13.111328,20.492187 A 1.3559914,1.3559914 0 0 0 11.681641,20.34375 Z m 1.951172,3.996094 4.021484,3.138672 13.751953,10.736328 H 13.632813 Z"
             id="path27" />
        </g>
      </g>
      <g
         id="path1"
         style="stroke-width:2.38125;stroke-dasharray:none">
        <path
           style="color:#000000;fill:#fdffff;stroke-width:2.38125;stroke-linejoin:round;stroke-dasharray:none"
           d="m 32.803236,20.77116 a 3.0396821,3.0396821 0 0 1 -3.039682,3.039682 3.0396821,3.0396821 0 0 1 -3.039683,-3.039682 3.0396821,3.0396821 0 0 1 3.039683,-3.039682 3.0396821,3.0396821 0 0 1 3.039682,3.039682 z"
           id="path2" />
        <path
           style="color:#000000;fill:#0f2c50;stroke-width:2.38125;stroke-linejoin:round;stroke-dasharray:none"
           d="m 29.707031,16.939453 -0.11914,0.002 a 0.79382936,0.79382936 0 0 0 -0.04102,0.002 l -0.154297,0.01172 a 0.79382936,0.79382936 0 0 0 -0.03906,0.0039 l -0.152344,0.01953 a 0.79382936,0.79382936 0 0 0 -0.04102,0.0059 l -0.148437,0.02734 a 0.79382936,0.79382936 0 0 0 -0.03906,0.0078 l -0.146484,0.03516 a 0.79382936,0.79382936 0 0 0 -0.03906,0.0098 l -0.144531,0.04102 a 0.79382936,0.79382936 0 0 0 -0.03711,0.01172 l -0.140625,0.04687 a 0.79382936,0.79382936 0 0 0 -0.03711,0.01367 l -0.138672,0.05469 a 0.79382936,0.79382936 0 0 0 -0.03516,0.01563 l -0.134765,0.06055 a 0.79382936,0.79382936 0 0 0 -0.03516,0.01563 l -0.130859,0.06836 a 0.79382936,0.79382936 0 0 0 -0.0332,0.01758 l -0.128906,0.07422 a 0.79382936,0.79382936 0 0 0 -0.03125,0.01953 l -0.125,0.07813 a 0.79382936,0.79382936 0 0 0 -0.03125,0.02148 l -0.119141,0.08594 a 0.79382936,0.79382936 0 0 0 -0.0293,0.02148 l -0.115234,0.08984 a 0.79382936,0.79382936 0 0 0 -0.0293,0.02539 l -0.111328,0.0957 a 0.79382936,0.79382936 0 0 0 -0.02734,0.02539 l -0.105469,0.09961 a 0.79382936,0.79382936 0 0 0 -0.02734,0.02734 l -0.09961,0.105468 a 0.79382936,0.79382936 0 0 0 -0.02539,0.02734 l -0.0957,0.111328 a 0.79382936,0.79382936 0 0 0 -0.02539,0.0293 l -0.08984,0.115235 a 0.79382936,0.79382936 0 0 0 -0.02148,0.0293 l -0.08594,0.119141 a 0.79382936,0.79382936 0 0 0 -0.02148,0.03125 l -0.07813,0.123047 a 0.79382936,0.79382936 0 0 0 -0.01953,0.0332 l -0.07422,0.126953 a 0.79382936,0.79382936 0 0 0 -0.01758,0.03516 l -0.06836,0.13086 a 0.79382936,0.79382936 0 0 0 -0.01563,0.03516 l -0.06055,0.134766 a 0.79382936,0.79382936 0 0 0 -0.01563,0.03516 l -0.05469,0.138672 a 0.79382936,0.79382936 0 0 0 -0.01367,0.03516 l -0.04687,0.142578 a 0.79382936,0.79382936 0 0 0 -0.01172,0.03711 l -0.04102,0.144531 a 0.79382936,0.79382936 0 0 0 -0.0098,0.03711 l -0.03516,0.148438 a 0.79382936,0.79382936 0 0 0 -0.0078,0.03906 l -0.02734,0.148438 a 0.79382936,0.79382936 0 0 0 -0.0059,0.04102 l -0.01953,0.150391 a 0.79382936,0.79382936 0 0 0 -0.0039,0.04102 l -0.01172,0.154296 a 0.79382936,0.79382936 0 0 0 -0.002,0.03906 l -0.0039,0.158203 a 0.79382936,0.79382936 0 0 0 0,0.03906 l 0.0039,0.15625 a 0.79382936,0.79382936 0 0 0 0.002,0.04102 l 0.01172,0.154297 a 0.79382936,0.79382936 0 0 0 0.0039,0.03906 l 0.01953,0.152343 a 0.79382936,0.79382936 0 0 0 0.0059,0.03906 l 0.02734,0.15039 a 0.79382936,0.79382936 0 0 0 0.0078,0.03906 l 0.03516,0.146484 a 0.79382936,0.79382936 0 0 0 0.0098,0.03906 l 0.04102,0.144531 a 0.79382936,0.79382936 0 0 0 0.01172,0.03711 l 0.04687,0.140625 a 0.79382936,0.79382936 0 0 0 0.01367,0.03711 l 0.05469,0.138672 a 0.79382936,0.79382936 0 0 0 0.01563,0.03516 l 0.06055,0.134766 a 0.79382936,0.79382936 0 0 0 0.01563,0.03516 l 0.06836,0.130859 a 0.79382936,0.79382936 0 0 0 0.01758,0.0332 l 0.05078,0.08984 1.376953,-0.792969 -0.04102,-0.07031 -0.05078,-0.09766 -0.04492,-0.09961 -0.03906,-0.101562 -0.03516,-0.103516 -0.03125,-0.105469 -0.02344,-0.109375 -0.02148,-0.111328 -0.01367,-0.111328 -0.0078,-0.115234 -0.0039,-0.115235 0.0039,-0.117187 0.0078,-0.113281 0.01367,-0.113282 0.02148,-0.109375 0.02344,-0.109375 0.03125,-0.105468 0.03516,-0.105469 0.03906,-0.101563 0.04492,-0.09766 0.05078,-0.09766 0.05273,-0.09375 0.05859,-0.0918 0.0625,-0.08789 0.06836,-0.08398 0.07031,-0.08203 0.07422,-0.07813 0.07813,-0.07422 0.08203,-0.07227 0.08398,-0.06641 0.08789,-0.0625 0.0918,-0.05859 0.09375,-0.05273 0.09766,-0.05078 0.09766,-0.04492 0.103515,-0.03906 0.103516,-0.03516 0.105469,-0.03125 0.109375,-0.02539 0.109375,-0.01953 0.113281,-0.01367 0.113281,-0.0078 0.09961,-0.0039 z m 1.935547,0.490234 -0.791016,1.376954 0.07617,0.04297 0.0918,0.05859 0.08789,0.0625 0.08398,0.06641 0.08203,0.07227 0.07813,0.07422 0.07422,0.07813 0.07031,0.08203 0.06836,0.08398 0.0625,0.08789 0.05859,0.0918 0.05273,0.09375 0.05078,0.09766 0.04492,0.09766 0.03906,0.101563 0.03516,0.105469 0.03125,0.105468 0.02344,0.109375 0.01953,0.109375 0.01563,0.113282 0.0078,0.113281 0.0039,0.117187 -0.0039,0.115235 -0.0078,0.115234 -0.01563,0.111328 -0.01953,0.111328 -0.02344,0.109375 -0.03125,0.105469 -0.03516,0.103516 -0.03906,0.101562 -0.04492,0.09961 -0.05078,0.09766 -0.05273,0.09375 -0.05859,0.08984 -0.0625,0.08984 -0.06836,0.08398 -0.07031,0.08203 -0.07422,0.07813 -0.07813,0.07422 -0.08203,0.07031 -0.08398,0.06641 -0.08789,0.0625 -0.0918,0.05859 -0.09375,0.05469 -0.09766,0.04883 -0.09961,0.04492 -0.101563,0.04102 -0.103515,0.03516 -0.105469,0.0293 -0.109375,0.02539 -0.109375,0.01953 -0.113281,0.01563 -0.115235,0.0078 -0.115234,0.0039 -0.117188,-0.0039 -0.113281,-0.0078 -0.113281,-0.01563 -0.109375,-0.01953 -0.109375,-0.02539 -0.105469,-0.0293 -0.103516,-0.03516 -0.103515,-0.04102 -0.09766,-0.04492 -0.09766,-0.04883 -0.03906,-0.02344 -0.791016,1.376953 0.05664,0.0332 a 0.79382936,0.79382936 0 0 0 0.0332,0.01758 l 0.130859,0.06641 a 0.79382936,0.79382936 0 0 0 0.03516,0.01758 l 0.134765,0.06055 a 0.79382936,0.79382936 0 0 0 0.03516,0.01563 l 0.138672,0.05469 a 0.79382936,0.79382936 0 0 0 0.03711,0.01367 l 0.140625,0.04687 a 0.79382936,0.79382936 0 0 0 0.03711,0.01172 l 0.144531,0.04102 a 0.79382936,0.79382936 0 0 0 0.03906,0.0098 l 0.146484,0.03516 a 0.79382936,0.79382936 0 0 0 0.03906,0.0078 l 0.148437,0.02539 a 0.79382936,0.79382936 0 0 0 0.04102,0.0059 l 0.152344,0.01953 a 0.79382936,0.79382936 0 0 0 0.03906,0.0039 l 0.154297,0.01172 a 0.79382936,0.79382936 0 0 0 0.04102,0.002 l 0.15625,0.0039 a 0.79382936,0.79382936 0 0 0 0.03906,0 l 0.15625,-0.0039 a 0.79382936,0.79382936 0 0 0 0.04102,-0.002 l 0.154297,-0.01172 a 0.79382936,0.79382936 0 0 0 0.03906,-0.0039 l 0.152344,-0.01953 a 0.79382936,0.79382936 0 0 0 0.03906,-0.0059 l 0.150391,-0.02539 a 0.79382936,0.79382936 0 0 0 0.03906,-0.0078 l 0.146485,-0.03516 a 0.79382936,0.79382936 0 0 0 0.03906,-0.0098 l 0.144532,-0.04102 a 0.79382936,0.79382936 0 0 0 0.03711,-0.01172 l 0.140625,-0.04687 a 0.79382936,0.79382936 0 0 0 0.03711,-0.01367 l 0.138672,-0.05469 a 0.79382936,0.79382936 0 0 0 0.03516,-0.01563 l 0.134766,-0.06055 a 0.79382936,0.79382936 0 0 0 0.03516,-0.01758 l 0.13086,-0.06641 a 0.79382936,0.79382936 0 0 0 0.0332,-0.01758 l 0.128906,-0.07422 a 0.79382936,0.79382936 0 0 0 0.03125,-0.01953 l 0.123047,-0.08008 a 0.79382936,0.79382936 0 0 0 0.0332,-0.01953 l 0.119141,-0.08594 a 0.79382936,0.79382936 0 0 0 0.0293,-0.02148 l 0.115234,-0.0918 a 0.79382936,0.79382936 0 0 0 0.0293,-0.02344 l 0.109375,-0.0957 a 0.79382936,0.79382936 0 0 0 0.0293,-0.02539 l 0.105468,-0.101562 a 0.79382936,0.79382936 0 0 0 0.02734,-0.02539 l 0.09961,-0.105469 a 0.79382936,0.79382936 0 0 0 0.02539,-0.0293 l 0.0957,-0.109375 a 0.79382936,0.79382936 0 0 0 0.02344,-0.0293 l 0.0918,-0.115234 a 0.79382936,0.79382936 0 0 0 0.02148,-0.0293 l 0.08594,-0.11914 a 0.79382936,0.79382936 0 0 0 0.02148,-0.0332 l 0.07813,-0.123046 a 0.79382936,0.79382936 0 0 0 0.01953,-0.0332 L 33.125,22.615234 a 0.79382936,0.79382936 0 0 0 0.01758,-0.0332 l 0.06836,-0.130859 a 0.79382936,0.79382936 0 0 0 0.01563,-0.03516 l 0.06055,-0.134766 a 0.79382936,0.79382936 0 0 0 0.01563,-0.03516 l 0.05469,-0.138672 a 0.79382936,0.79382936 0 0 0 0.01367,-0.03711 l 0.04687,-0.140625 a 0.79382936,0.79382936 0 0 0 0.01172,-0.03711 l 0.04102,-0.144531 a 0.79382936,0.79382936 0 0 0 0.0098,-0.03906 l 0.03516,-0.146484 a 0.79382936,0.79382936 0 0 0 0.0078,-0.03906 l 0.02539,-0.15039 a 0.79382936,0.79382936 0 0 0 0.0059,-0.03906 l 0.01953,-0.152343 a 0.79382936,0.79382936 0 0 0 0.0039,-0.03906 l 0.01172,-0.154297 a 0.79382936,0.79382936 0 0 0 0.0039,-0.04102 l 0.0039,-0.15625 -0.792969,-0.01953 0.792969,-0.01953 -0.0039,-0.158203 a 0.79382936,0.79382936 0 0 0 -0.0039,-0.03906 L 33.5782,20.400398 a 0.79382936,0.79382936 0 0 0 -0.0039,-0.04102 l -0.01953,-0.150391 a 0.79382936,0.79382936 0 0 0 -0.0059,-0.04102 l -0.02539,-0.148438 a 0.79382936,0.79382936 0 0 0 -0.0078,-0.03906 l -0.03516,-0.148438 a 0.79382936,0.79382936 0 0 0 -0.0098,-0.03711 L 33.4297,19.65039 a 0.79382936,0.79382936 0 0 0 -0.01172,-0.03711 l -0.04687,-0.142578 a 0.79382936,0.79382936 0 0 0 -0.01367,-0.03516 L 33.30275,19.29687 a 0.79382936,0.79382936 0 0 0 -0.01563,-0.03516 l -0.06055,-0.134766 a 0.79382936,0.79382936 0 0 0 -0.01563,-0.03516 l -0.06836,-0.13086 A 0.79382936,0.79382936 0 0 0 33.125,18.925781 l -0.07422,-0.126953 a 0.79382936,0.79382936 0 0 0 -0.01953,-0.0332 l -0.07813,-0.123047 a 0.79382936,0.79382936 0 0 0 -0.02148,-0.03125 L 32.8457,18.49219 a 0.79382936,0.79382936 0 0 0 -0.02148,-0.0293 l -0.0918,-0.115235 a 0.79382936,0.79382936 0 0 0 -0.02344,-0.0293 l -0.0957,-0.111328 a 0.79382936,0.79382936 0 0 0 -0.02539,-0.02734 l -0.09961,-0.105468 a 0.79382936,0.79382936 0 0 0 -0.02734,-0.02734 l -0.105468,-0.09961 a 0.79382936,0.79382936 0 0 0 -0.0293,-0.02539 l -0.109375,-0.0957 a 0.79382936,0.79382936 0 0 0 -0.0293,-0.02539 l -0.115234,-0.08984 a 0.79382936,0.79382936 0 0 0 -0.0293,-0.02148 l -0.119141,-0.08594 a 0.79382936,0.79382936 0 0 0 -0.0332,-0.02148 l -0.123047,-0.07813 a 0.79382936,0.79382936 0 0 0 -0.03125,-0.01953 z"
           id="path3" />
      </g>
    </g>
  </g>
</svg>
