<?xml version="1.0" encoding="UTF-8" standalone="no"?>
<!-- Created with Inkscape (http://www.inkscape.org/) -->

<svg
   width="180"
   height="180"
   viewBox="0 0 47.624999 47.625"
   version="1.1"
   id="svg1"
   inkscape:version="1.3.2 (091e20e, 2023-11-25)"
   sodipodi:docname="karma-matt.svg"
   inkscape:export-filename="new-logo-website-3-matt.png"
   inkscape:export-xdpi="96"
   inkscape:export-ydpi="96"
   xmlns:inkscape="http://www.inkscape.org/namespaces/inkscape"
   xmlns:sodipodi="http://sodipodi.sourceforge.net/DTD/sodipodi-0.dtd"
   xmlns="http://www.w3.org/2000/svg"
   xmlns:svg="http://www.w3.org/2000/svg">
  <sodipodi:namedview
     id="namedview1"
     pagecolor="#ffffff"
     bordercolor="#000000"
     borderopacity="0.25"
     inkscape:showpageshadow="false"
     inkscape:pageopacity="0.0"
     inkscape:pagecheckerboard="0"
     inkscape:deskcolor="#d1d1d1"
     inkscape:document-units="px"
     inkscape:zoom="1.7993082"
     inkscape:cx="87.811529"
     inkscape:cy="115.59999"
     inkscape:window-width="1440"
     inkscape:window-height="847"
     inkscape:window-x="0"
     inkscape:window-y="25"
     inkscape:window-maximized="1"
     inkscape:current-layer="layer1"
     showgrid="false" />
  <defs
     id="defs1" />
  <g
     inkscape:label="Layer 1"
     inkscape:groupmode="layer"
     id="layer1">
    <g
       id="g22"
       transform="matrix(1.0060236,0,0,1.0060236,-8.5883157e-4,-8.5883157e-4)">
      <g
         id="path18">
        <path
           style="color:#000000;fill:#fdffff;stroke-linejoin:round;-inkscape-stroke:none"
           d="M 46.689104,23.8125 A 22.876604,22.876604 0 0 1 23.8125,46.689104 22.876604,22.876604 0 0 1 0.93589592,23.8125 22.876604,22.876604 0 0 1 23.8125,0.93589592 22.876604,22.876604 0 0 1 46.689104,23.8125 Z"
           id="path14" />
        <path
           style="color:#000000;fill:#0f2c50;stroke-linejoin:round;-inkscape-stroke:none"
           d="M 23.8125,0.14257812 C 10.749139,0.14257812 0.14257813,10.749139 0.14257812,23.8125 0.14257813,36.875861 10.749139,47.482422 23.8125,47.482422 c 13.063361,0 23.669922,-10.606561 23.669922,-23.669922 0,-13.063361 -10.606561,-23.66992187 -23.669922,-23.66992188 z m 0,1.58789058 c 12.205413,10e-8 22.082031,9.8766183 22.082031,22.0820313 0,12.205413 -9.876618,22.082031 -22.082031,22.082031 C 11.607087,45.894531 1.7304688,36.017913 1.7304687,23.8125 1.7304688,11.607087 11.607087,1.7304687 23.8125,1.7304687 Z"
           id="path15" />
      </g>
      <g
         id="g1"
         transform="matrix(0.87813539,0,0,-0.87813539,2.9018957,44.723096)"
         style="stroke-width:1.80781">
        <g
           id="path16">
          <path
             style="color:#000000;fill:#fdffff;stroke-linejoin:round;-inkscape-stroke:none"
             d="M 18.488111,26.409889 C 23.812512,21.561286 35.348226,8.0539936 35.348226,8.0539936 H 12.276798 V 21.561286 Z"
             id="path19" />
          <path
             style="color:#000000;fill:#0f2c50;stroke-linejoin:round;-inkscape-stroke:none"
             d="M 12.277344,7.1503906 A 0.90399429,0.90399429 0 0 0 11.373047,8.0546875 V 21.560547 a 0.90399429,0.90399429 0 0 0 0.347656,0.71289 l 6.210938,4.84961 a 0.90399429,0.90399429 0 0 0 1.166015,-0.04492 c 5.461743,-4.973672 16.9375,-18.4375 16.9375,-18.4375 a 0.90399429,0.90399429 0 0 0 -0.6875,-1.4902344 z m 0.904297,1.8066407 H 33.355469 C 31.466541,11.152774 23.201758,20.691094 18.398437,25.193359 l -5.216796,-4.072265 z"
             id="path20" />
        </g>
        <g
           id="path17">
          <path
             style="color:#000000;fill:#0f2c50;stroke-linejoin:round;-inkscape-stroke:none"
             d="M 18.488111,26.409889 35.348226,39.571003 H 12.276798 V 21.561286 Z"
             id="path21" />
          <path
             style="color:#000000;fill:#0f2c50;stroke-linejoin:round;-inkscape-stroke:none"
             d="m 11.880859,20.75 a 0.90399429,0.90399429 0 0 0 -0.507812,0.810547 v 18.009765 a 0.90399429,0.90399429 0 0 0 0.904297,0.904297 h 23.070312 a 0.90399429,0.90399429 0 0 0 0.556641,-1.615234 L 19.044922,25.697266 12.832031,20.849609 A 0.90399429,0.90399429 0 0 0 11.880859,20.75 Z m 1.300782,2.664062 4.75,3.708985 14.791015,11.544922 H 13.181641 Z"
             id="path22" />
        </g>
      </g>
      <g
         id="path1"
         style="stroke-width:1.5875;stroke-dasharray:none">
        <path
           style="color:#000000;fill:#fdffff;stroke-width:1.5875;stroke-linejoin:round;stroke-dasharray:none"
           d="m 32.803236,20.77116 a 3.0396821,3.0396821 0 0 1 -3.039682,3.039682 3.0396821,3.0396821 0 0 1 -3.039683,-3.039682 3.0396821,3.0396821 0 0 1 3.039683,-3.039682 3.0396821,3.0396821 0 0 1 3.039682,3.039682 z"
           id="path2" />
        <path
           style="color:#000000;fill:#0f2c50;stroke-width:1.5875;stroke-linejoin:round;stroke-dasharray:none"
           d="m 29.707031,16.939453 -0.11914,0.002 a 0.79382936,0.79382936 0 0 0 -0.04102,0.002 l -0.154297,0.01172 a 0.79382936,0.79382936 0 0 0 -0.03906,0.0039 l -0.152344,0.01953 a 0.79382936,0.79382936 0 0 0 -0.04102,0.0059 l -0.148437,0.02734 a 0.79382936,0.79382936 0 0 0 -0.03906,0.0078 l -0.146484,0.03516 a 0.79382936,0.79382936 0 0 0 -0.03906,0.0098 l -0.144531,0.04102 a 0.79382936,0.79382936 0 0 0 -0.03711,0.01172 l -0.140625,0.04687 a 0.79382936,0.79382936 0 0 0 -0.03711,0.01367 l -0.138672,0.05469 a 0.79382936,0.79382936 0 0 0 -0.03516,0.01563 l -0.134765,0.06055 a 0.79382936,0.79382936 0 0 0 -0.03516,0.01563 l -0.130859,0.06836 a 0.79382936,0.79382936 0 0 0 -0.0332,0.01758 l -0.128906,0.07422 a 0.79382936,0.79382936 0 0 0 -0.03125,0.01953 l -0.125,0.07813 a 0.79382936,0.79382936 0 0 0 -0.03125,0.02148 l -0.119141,0.08594 a 0.79382936,0.79382936 0 0 0 -0.0293,0.02148 l -0.115234,0.08984 a 0.79382936,0.79382936 0 0 0 -0.0293,0.02539 l -0.111328,0.0957 a 0.79382936,0.79382936 0 0 0 -0.02734,0.02539 l -0.105469,0.09961 a 0.79382936,0.79382936 0 0 0 -0.02734,0.02734 l -0.09961,0.105468 a 0.79382936,0.79382936 0 0 0 -0.02539,0.02734 l -0.0957,0.111328 a 0.79382936,0.79382936 0 0 0 -0.02539,0.0293 l -0.08984,0.115235 a 0.79382936,0.79382936 0 0 0 -0.02148,0.0293 l -0.08594,0.119141 a 0.79382936,0.79382936 0 0 0 -0.02148,0.03125 l -0.07813,0.123047 a 0.79382936,0.79382936 0 0 0 -0.01953,0.0332 l -0.07422,0.126953 a 0.79382936,0.79382936 0 0 0 -0.01758,0.03516 l -0.06836,0.13086 a 0.79382936,0.79382936 0 0 0 -0.01563,0.03516 l -0.06055,0.134766 a 0.79382936,0.79382936 0 0 0 -0.01563,0.03516 l -0.05469,0.138672 a 0.79382936,0.79382936 0 0 0 -0.01367,0.03516 l -0.04687,0.142578 a 0.79382936,0.79382936 0 0 0 -0.01172,0.03711 l -0.04102,0.144531 a 0.79382936,0.79382936 0 0 0 -0.0098,0.03711 l -0.03516,0.148438 a 0.79382936,0.79382936 0 0 0 -0.0078,0.03906 l -0.02734,0.148438 a 0.79382936,0.79382936 0 0 0 -0.0059,0.04102 l -0.01953,0.150391 a 0.79382936,0.79382936 0 0 0 -0.0039,0.04102 l -0.01172,0.154296 a 0.79382936,0.79382936 0 0 0 -0.002,0.03906 l -0.0039,0.158203 a 0.79382936,0.79382936 0 0 0 0,0.03906 l 0.0039,0.15625 a 0.79382936,0.79382936 0 0 0 0.002,0.04102 l 0.01172,0.154297 a 0.79382936,0.79382936 0 0 0 0.0039,0.03906 l 0.01953,0.152343 a 0.79382936,0.79382936 0 0 0 0.0059,0.03906 l 0.02734,0.15039 a 0.79382936,0.79382936 0 0 0 0.0078,0.03906 l 0.03516,0.146484 a 0.79382936,0.79382936 0 0 0 0.0098,0.03906 l 0.04102,0.144531 a 0.79382936,0.79382936 0 0 0 0.01172,0.03711 l 0.04687,0.140625 a 0.79382936,0.79382936 0 0 0 0.01367,0.03711 l 0.05469,0.138672 a 0.79382936,0.79382936 0 0 0 0.01563,0.03516 l 0.06055,0.134766 a 0.79382936,0.79382936 0 0 0 0.01563,0.03516 l 0.06836,0.130859 a 0.79382936,0.79382936 0 0 0 0.01758,0.0332 l 0.05078,0.08984 1.376953,-0.792969 -0.04102,-0.07031 -0.05078,-0.09766 -0.04492,-0.09961 -0.03906,-0.101562 -0.03516,-0.103516 -0.03125,-0.105469 -0.02344,-0.109375 -0.02148,-0.111328 -0.01367,-0.111328 -0.0078,-0.115234 -0.0039,-0.115235 0.0039,-0.117187 0.0078,-0.113281 0.01367,-0.113282 0.02148,-0.109375 0.02344,-0.109375 0.03125,-0.105468 0.03516,-0.105469 0.03906,-0.101563 0.04492,-0.09766 0.05078,-0.09766 0.05273,-0.09375 0.05859,-0.0918 0.0625,-0.08789 0.06836,-0.08398 0.07031,-0.08203 0.07422,-0.07813 0.07813,-0.07422 0.08203,-0.07227 0.08398,-0.06641 0.08789,-0.0625 0.0918,-0.05859 0.09375,-0.05273 0.09766,-0.05078 0.09766,-0.04492 0.103515,-0.03906 0.103516,-0.03516 0.105469,-0.03125 0.109375,-0.02539 0.109375,-0.01953 0.113281,-0.01367 0.113281,-0.0078 0.09961,-0.0039 z m 1.935547,0.490234 -0.791016,1.376954 0.07617,0.04297 0.0918,0.05859 0.08789,0.0625 0.08398,0.06641 0.08203,0.07227 0.07813,0.07422 0.07422,0.07813 0.07031,0.08203 0.06836,0.08398 0.0625,0.08789 0.05859,0.0918 0.05273,0.09375 0.05078,0.09766 0.04492,0.09766 0.03906,0.101563 0.03516,0.105469 0.03125,0.105468 0.02344,0.109375 0.01953,0.109375 0.01563,0.113282 0.0078,0.113281 0.0039,0.117187 -0.0039,0.115235 -0.0078,0.115234 -0.01563,0.111328 -0.01953,0.111328 -0.02344,0.109375 -0.03125,0.105469 -0.03516,0.103516 -0.03906,0.101562 -0.04492,0.09961 -0.05078,0.09766 -0.05273,0.09375 -0.05859,0.08984 -0.0625,0.08984 -0.06836,0.08398 -0.07031,0.08203 -0.07422,0.07813 -0.07813,0.07422 -0.08203,0.07031 -0.08398,0.06641 -0.08789,0.0625 -0.0918,0.05859 -0.09375,0.05469 -0.09766,0.04883 -0.09961,0.04492 -0.101563,0.04102 -0.103515,0.03516 -0.105469,0.0293 -0.109375,0.02539 -0.109375,0.01953 -0.113281,0.01563 -0.115235,0.0078 -0.115234,0.0039 -0.117188,-0.0039 -0.113281,-0.0078 -0.113281,-0.01563 -0.109375,-0.01953 -0.109375,-0.02539 -0.105469,-0.0293 -0.103516,-0.03516 -0.103515,-0.04102 -0.09766,-0.04492 -0.09766,-0.04883 -0.03906,-0.02344 -0.791016,1.376953 0.05664,0.0332 a 0.79382936,0.79382936 0 0 0 0.0332,0.01758 l 0.130859,0.06641 a 0.79382936,0.79382936 0 0 0 0.03516,0.01758 l 0.134765,0.06055 a 0.79382936,0.79382936 0 0 0 0.03516,0.01563 l 0.138672,0.05469 a 0.79382936,0.79382936 0 0 0 0.03711,0.01367 l 0.140625,0.04687 a 0.79382936,0.79382936 0 0 0 0.03711,0.01172 l 0.144531,0.04102 a 0.79382936,0.79382936 0 0 0 0.03906,0.0098 l 0.146484,0.03516 a 0.79382936,0.79382936 0 0 0 0.03906,0.0078 l 0.148437,0.02539 a 0.79382936,0.79382936 0 0 0 0.04102,0.0059 l 0.152344,0.01953 a 0.79382936,0.79382936 0 0 0 0.03906,0.0039 l 0.154297,0.01172 a 0.79382936,0.79382936 0 0 0 0.04102,0.002 l 0.15625,0.0039 a 0.79382936,0.79382936 0 0 0 0.03906,0 l 0.15625,-0.0039 a 0.79382936,0.79382936 0 0 0 0.04102,-0.002 l 0.154297,-0.01172 a 0.79382936,0.79382936 0 0 0 0.03906,-0.0039 l 0.152344,-0.01953 a 0.79382936,0.79382936 0 0 0 0.03906,-0.0059 l 0.150391,-0.02539 a 0.79382936,0.79382936 0 0 0 0.03906,-0.0078 l 0.146485,-0.03516 a 0.79382936,0.79382936 0 0 0 0.03906,-0.0098 l 0.144532,-0.04102 a 0.79382936,0.79382936 0 0 0 0.03711,-0.01172 l 0.140625,-0.04687 a 0.79382936,0.79382936 0 0 0 0.03711,-0.01367 l 0.138672,-0.05469 a 0.79382936,0.79382936 0 0 0 0.03516,-0.01563 l 0.134766,-0.06055 a 0.79382936,0.79382936 0 0 0 0.03516,-0.01758 l 0.13086,-0.06641 a 0.79382936,0.79382936 0 0 0 0.0332,-0.01758 l 0.128906,-0.07422 a 0.79382936,0.79382936 0 0 0 0.03125,-0.01953 l 0.123047,-0.08008 a 0.79382936,0.79382936 0 0 0 0.0332,-0.01953 l 0.119141,-0.08594 a 0.79382936,0.79382936 0 0 0 0.0293,-0.02148 l 0.115234,-0.0918 a 0.79382936,0.79382936 0 0 0 0.0293,-0.02344 l 0.109375,-0.0957 a 0.79382936,0.79382936 0 0 0 0.0293,-0.02539 l 0.105468,-0.101562 a 0.79382936,0.79382936 0 0 0 0.02734,-0.02539 l 0.09961,-0.105469 a 0.79382936,0.79382936 0 0 0 0.02539,-0.0293 l 0.0957,-0.109375 a 0.79382936,0.79382936 0 0 0 0.02344,-0.0293 l 0.0918,-0.115234 a 0.79382936,0.79382936 0 0 0 0.02148,-0.0293 l 0.08594,-0.11914 a 0.79382936,0.79382936 0 0 0 0.02148,-0.0332 l 0.07813,-0.123046 a 0.79382936,0.79382936 0 0 0 0.01953,-0.0332 L 33.125,22.615234 a 0.79382936,0.79382936 0 0 0 0.01758,-0.0332 l 0.06836,-0.130859 a 0.79382936,0.79382936 0 0 0 0.01563,-0.03516 l 0.06055,-0.134766 a 0.79382936,0.79382936 0 0 0 0.01563,-0.03516 l 0.05469,-0.138672 a 0.79382936,0.79382936 0 0 0 0.01367,-0.03711 l 0.04687,-0.140625 a 0.79382936,0.79382936 0 0 0 0.01172,-0.03711 l 0.04102,-0.144531 a 0.79382936,0.79382936 0 0 0 0.0098,-0.03906 l 0.03516,-0.146484 a 0.79382936,0.79382936 0 0 0 0.0078,-0.03906 l 0.02539,-0.15039 a 0.79382936,0.79382936 0 0 0 0.0059,-0.03906 l 0.01953,-0.152343 a 0.79382936,0.79382936 0 0 0 0.0039,-0.03906 l 0.01172,-0.154297 a 0.79382936,0.79382936 0 0 0 0.0039,-0.04102 l 0.0039,-0.15625 -0.792969,-0.01953 0.792969,-0.01953 -0.0039,-0.158203 a 0.79382936,0.79382936 0 0 0 -0.0039,-0.03906 L 33.5782,20.400398 a 0.79382936,0.79382936 0 0 0 -0.0039,-0.04102 l -0.01953,-0.150391 a 0.79382936,0.79382936 0 0 0 -0.0059,-0.04102 l -0.02539,-0.148438 a 0.79382936,0.79382936 0 0 0 -0.0078,-0.03906 l -0.03516,-0.148438 a 0.79382936,0.79382936 0 0 0 -0.0098,-0.03711 L 33.4297,19.65039 a 0.79382936,0.79382936 0 0 0 -0.01172,-0.03711 l -0.04687,-0.142578 a 0.79382936,0.79382936 0 0 0 -0.01367,-0.03516 L 33.30275,19.29687 a 0.79382936,0.79382936 0 0 0 -0.01563,-0.03516 l -0.06055,-0.134766 a 0.79382936,0.79382936 0 0 0 -0.01563,-0.03516 l -0.06836,-0.13086 A 0.79382936,0.79382936 0 0 0 33.125,18.925781 l -0.07422,-0.126953 a 0.79382936,0.79382936 0 0 0 -0.01953,-0.0332 l -0.07813,-0.123047 a 0.79382936,0.79382936 0 0 0 -0.02148,-0.03125 L 32.8457,18.49219 a 0.79382936,0.79382936 0 0 0 -0.02148,-0.0293 l -0.0918,-0.115235 a 0.79382936,0.79382936 0 0 0 -0.02344,-0.0293 l -0.0957,-0.111328 a 0.79382936,0.79382936 0 0 0 -0.02539,-0.02734 l -0.09961,-0.105468 a 0.79382936,0.79382936 0 0 0 -0.02734,-0.02734 l -0.105468,-0.09961 a 0.79382936,0.79382936 0 0 0 -0.0293,-0.02539 l -0.109375,-0.0957 a 0.79382936,0.79382936 0 0 0 -0.0293,-0.02539 l -0.115234,-0.08984 a 0.79382936,0.79382936 0 0 0 -0.0293,-0.02148 l -0.119141,-0.08594 a 0.79382936,0.79382936 0 0 0 -0.0332,-0.02148 l -0.123047,-0.07813 a 0.79382936,0.79382936 0 0 0 -0.03125,-0.01953 z"
           id="path3" />
      </g>
    </g>
  </g>
</svg>
