<?xml version="1.0" encoding="UTF-8" standalone="no"?>
<!-- Created with Inkscape (http://www.inkscape.org/) -->

<svg
   width="900"
   height="504"
   viewBox="0 0 238.12499 133.35"
   version="1.1"
   id="svg1"
   xml:space="preserve"
   inkscape:version="1.3.2 (091e20e, 2023-11-25)"
   sodipodi:docname="logo.svg"
   xmlns:inkscape="http://www.inkscape.org/namespaces/inkscape"
   xmlns:sodipodi="http://sodipodi.sourceforge.net/DTD/sodipodi-0.dtd"
   xmlns="http://www.w3.org/2000/svg"
   xmlns:svg="http://www.w3.org/2000/svg"><sodipodi:namedview
     id="namedview1"
     pagecolor="#ffffff"
     bordercolor="#000000"
     borderopacity="0.25"
     inkscape:showpageshadow="false"
     inkscape:pageopacity="0.0"
     inkscape:pagecheckerboard="0"
     inkscape:deskcolor="#d1d1d1"
     inkscape:document-units="px"
     borderlayer="true"
     inkscape:zoom="0.32553666"
     inkscape:cx="459.24167"
     inkscape:cy="-55.293311"
     inkscape:window-width="1440"
     inkscape:window-height="847"
     inkscape:window-x="254"
     inkscape:window-y="1105"
     inkscape:window-maximized="1"
     inkscape:current-layer="layer2" /><defs
     id="defs1"><inkscape:path-effect
       effect="skeletal"
       id="path-effect33"
       is_visible="true"
       lpeversion="1"
       pattern="M 0,4.9921382 C 0,2.2364779 2.2364779,0 4.9921382,0 c 2.7556602,0 4.9921381,2.2364779 4.9921381,4.9921382 0,2.7556602 -2.2364779,4.9921381 -4.9921381,4.9921381 C 2.2364779,9.9842763 0,7.7477984 0,4.9921382 Z"
       copytype="single_stretched"
       prop_scale="0.27114169"
       scale_y_rel="false"
       spacing="0"
       normal_offset="0"
       tang_offset="0"
       prop_units="false"
       vertical_pattern="false"
       hide_knot="false"
       fuse_tolerance="0" /><inkscape:path-effect
       effect="skeletal"
       id="path-effect32"
       is_visible="true"
       lpeversion="1"
       pattern="M 0,4.9921382 C 0,2.2364779 2.2364779,0 4.9921382,0 c 2.7556602,0 4.9921381,2.2364779 4.9921381,4.9921382 0,2.7556602 -2.2364779,4.9921381 -4.9921381,4.9921381 C 2.2364779,9.9842763 0,7.7477984 0,4.9921382 Z"
       copytype="single_stretched"
       prop_scale="0.27114169"
       scale_y_rel="false"
       spacing="0"
       normal_offset="0"
       tang_offset="0"
       prop_units="false"
       vertical_pattern="false"
       hide_knot="false"
       fuse_tolerance="0" /><inkscape:path-effect
       effect="skeletal"
       id="path-effect31"
       is_visible="true"
       lpeversion="1"
       pattern="M 0,4.9921382 C 0,2.2364779 2.2364779,0 4.9921382,0 c 2.7556602,0 4.9921381,2.2364779 4.9921381,4.9921382 0,2.7556602 -2.2364779,4.9921381 -4.9921381,4.9921381 C 2.2364779,9.9842763 0,7.7477984 0,4.9921382 Z"
       copytype="single_stretched"
       prop_scale="0.27114169"
       scale_y_rel="false"
       spacing="0"
       normal_offset="0"
       tang_offset="0"
       prop_units="false"
       vertical_pattern="false"
       hide_knot="false"
       fuse_tolerance="0" /><inkscape:path-effect
       effect="spiro"
       id="path-effect30"
       is_visible="true"
       lpeversion="1" /><inkscape:path-effect
       effect="simplify"
       id="path-effect29"
       is_visible="true"
       lpeversion="1.3"
       threshold="17.2414"
       steps="1"
       smooth_angles="360"
       helper_size="0"
       simplify_individual_paths="false"
       simplify_just_coalesce="false" /><inkscape:path-effect
       effect="skeletal"
       id="path-effect28"
       is_visible="true"
       lpeversion="1"
       pattern="M 0,4.9921382 C 0,2.2364779 2.2364779,0 4.9921382,0 c 2.7556602,0 4.9921381,2.2364779 4.9921381,4.9921382 0,2.7556602 -2.2364779,4.9921381 -4.9921381,4.9921381 C 2.2364779,9.9842763 0,7.7477984 0,4.9921382 Z"
       copytype="single_stretched"
       prop_scale="0.27114169"
       scale_y_rel="false"
       spacing="0"
       normal_offset="0"
       tang_offset="0"
       prop_units="false"
       vertical_pattern="false"
       hide_knot="false"
       fuse_tolerance="0" /><inkscape:path-effect
       effect="spiro"
       id="path-effect27"
       is_visible="true"
       lpeversion="1" /><inkscape:path-effect
       effect="simplify"
       id="path-effect26"
       is_visible="true"
       lpeversion="1.3"
       threshold="17.2414"
       steps="1"
       smooth_angles="360"
       helper_size="0"
       simplify_individual_paths="false"
       simplify_just_coalesce="false" /><inkscape:path-effect
       effect="skeletal"
       id="path-effect17"
       is_visible="true"
       lpeversion="1"
       pattern="M 0,4.9921382 C 0,2.2364779 2.2364779,0 4.9921382,0 c 2.7556602,0 4.9921381,2.2364779 4.9921381,4.9921382 0,2.7556602 -2.2364779,4.9921381 -4.9921381,4.9921381 C 2.2364779,9.9842763 0,7.7477984 0,4.9921382 Z"
       copytype="single_stretched"
       prop_scale="0.27114169"
       scale_y_rel="false"
       spacing="0"
       normal_offset="0"
       tang_offset="0"
       prop_units="false"
       vertical_pattern="false"
       hide_knot="false"
       fuse_tolerance="0" /><inkscape:path-effect
       effect="spiro"
       id="path-effect16"
       is_visible="true"
       lpeversion="1" /><inkscape:path-effect
       effect="simplify"
       id="path-effect15"
       is_visible="true"
       lpeversion="1.3"
       threshold="17.2414"
       steps="1"
       smooth_angles="360"
       helper_size="0"
       simplify_individual_paths="false"
       simplify_just_coalesce="false" /><inkscape:path-effect
       effect="powerstroke"
       id="path-effect10"
       is_visible="true"
       lpeversion="1.3"
       scale_width="1"
       interpolator_type="CentripetalCatmullRom"
       interpolator_beta="0.75"
       start_linecap_type="round"
       end_linecap_type="round"
       offset_points="76.177492,4.4139755"
       linejoin_type="spiro"
       miter_limit="4"
       not_jump="true"
       sort_points="true"
       message="&lt;b&gt;Ctrl + click&lt;/b&gt; on existing node and move it" /><inkscape:path-effect
       effect="simplify"
       id="path-effect9"
       is_visible="true"
       lpeversion="1.3"
       threshold="0.012"
       steps="1"
       smooth_angles="0"
       helper_size="0"
       simplify_individual_paths="false"
       simplify_just_coalesce="false"
       step="1" /><inkscape:path-effect
       effect="powerstroke"
       id="path-effect8"
       is_visible="true"
       lpeversion="1.3"
       scale_width="1"
       interpolator_type="CentripetalCatmullRom"
       interpolator_beta="0.75"
       start_linecap_type="round"
       end_linecap_type="round"
       offset_points="9.7531967,4.4139755"
       linejoin_type="spiro"
       miter_limit="4"
       not_jump="true"
       sort_points="true"
       message="&lt;b&gt;Ctrl + click&lt;/b&gt; on existing node and move it" /><inkscape:path-effect
       effect="simplify"
       id="path-effect7"
       is_visible="true"
       lpeversion="1.3"
       threshold="0.012"
       steps="1"
       smooth_angles="0"
       helper_size="0"
       simplify_individual_paths="false"
       simplify_just_coalesce="false"
       step="1" /><inkscape:path-effect
       effect="powerstroke"
       id="path-effect6"
       is_visible="true"
       lpeversion="1.3"
       scale_width="1"
       interpolator_type="CentripetalCatmullRom"
       interpolator_beta="0.75"
       start_linecap_type="round"
       end_linecap_type="round"
       offset_points="37.855876,4.4139755"
       linejoin_type="spiro"
       miter_limit="4"
       not_jump="true"
       sort_points="true"
       message="&lt;b&gt;Ctrl + click&lt;/b&gt; on existing node and move it" /><inkscape:path-effect
       effect="simplify"
       id="path-effect5"
       is_visible="true"
       lpeversion="1.3"
       threshold="0.012"
       steps="1"
       smooth_angles="0"
       helper_size="0"
       simplify_individual_paths="false"
       simplify_just_coalesce="false"
       step="1" /><inkscape:path-effect
       effect="powerstroke"
       id="path-effect4"
       is_visible="true"
       lpeversion="1.3"
       scale_width="1"
       interpolator_type="CentripetalCatmullRom"
       interpolator_beta="0.75"
       start_linecap_type="round"
       end_linecap_type="round"
       offset_points="30.231361,4.4139755"
       linejoin_type="spiro"
       miter_limit="4"
       not_jump="true"
       sort_points="true"
       message="&lt;b&gt;Ctrl + click&lt;/b&gt; on existing node and move it" /><inkscape:path-effect
       effect="simplify"
       id="path-effect3"
       is_visible="true"
       lpeversion="1.3"
       threshold="0.012"
       steps="1"
       smooth_angles="0"
       helper_size="0"
       simplify_individual_paths="false"
       simplify_just_coalesce="false"
       step="1" /><inkscape:path-effect
       effect="skeletal"
       id="path-effect2"
       is_visible="true"
       lpeversion="1"
       pattern="M 0,4.9921382 C 0,2.2364779 2.2364779,0 4.9921382,0 c 2.7556602,0 4.9921381,2.2364779 4.9921381,4.9921382 0,2.7556602 -2.2364779,4.9921381 -4.9921381,4.9921381 C 2.2364779,9.9842763 0,7.7477984 0,4.9921382 Z"
       copytype="single_stretched"
       prop_scale="0.27114169"
       scale_y_rel="false"
       spacing="0"
       normal_offset="0"
       tang_offset="0"
       prop_units="false"
       vertical_pattern="false"
       hide_knot="false"
       fuse_tolerance="0" /><inkscape:path-effect
       effect="skeletal"
       id="path-effect1"
       is_visible="true"
       lpeversion="1"
       pattern="M 0,4.9921382 C 0,2.2364779 2.2364779,0 4.9921382,0 c 2.7556602,0 4.9921381,2.2364779 4.9921381,4.9921382 0,2.7556602 -2.2364779,4.9921381 -4.9921381,4.9921381 C 2.2364779,9.9842763 0,7.7477984 0,4.9921382 Z"
       copytype="single_stretched"
       prop_scale="0.38758289"
       scale_y_rel="false"
       spacing="0"
       normal_offset="0"
       tang_offset="0"
       prop_units="false"
       vertical_pattern="false"
       hide_knot="false"
       fuse_tolerance="0" /><inkscape:path-effect
       effect="skeletal"
       id="path-effect32-2"
       is_visible="true"
       lpeversion="1"
       pattern="M 0,4.9921382 C 0,2.2364779 2.2364779,0 4.9921382,0 c 2.7556602,0 4.9921381,2.2364779 4.9921381,4.9921382 0,2.7556602 -2.2364779,4.9921381 -4.9921381,4.9921381 C 2.2364779,9.9842763 0,7.7477984 0,4.9921382 Z"
       copytype="single_stretched"
       prop_scale="0.27114169"
       scale_y_rel="false"
       spacing="0"
       normal_offset="0"
       tang_offset="0"
       prop_units="false"
       vertical_pattern="false"
       hide_knot="false"
       fuse_tolerance="0" /><inkscape:path-effect
       effect="skeletal"
       id="path-effect33-4"
       is_visible="true"
       lpeversion="1"
       pattern="M 0,4.9921382 C 0,2.2364779 2.2364779,0 4.9921382,0 c 2.7556602,0 4.9921381,2.2364779 4.9921381,4.9921382 0,2.7556602 -2.2364779,4.9921381 -4.9921381,4.9921381 C 2.2364779,9.9842763 0,7.7477984 0,4.9921382 Z"
       copytype="single_stretched"
       prop_scale="0.27114169"
       scale_y_rel="false"
       spacing="0"
       normal_offset="0"
       tang_offset="0"
       prop_units="false"
       vertical_pattern="false"
       hide_knot="false"
       fuse_tolerance="0" /></defs><g
     inkscape:groupmode="layer"
     id="layer2"
     inkscape:label="logo"><g
       id="g33"
       transform="matrix(0.98310142,0,0,0.98310142,-542.15339,1.9068681)"><path
         style="fill:#1a1a1a;stroke:#1a1a1a;stroke-width:3.96875;stroke-dasharray:none;stroke-opacity:1"
         d="m 553.70876,73.368663 c -0.19187,-0.01967 -0.20162,-2.62527 1.41134,-7.28466 0.9105,-2.639605 2.21872,-5.684704 4.19568,-9.364403 3.38395,-6.300419 8.32567,-13.767093 15.63578,-21.875073 0,0 0,0 0,0 11.68418,-12.947844 31.1213,-28.9049825 57.24384,-34.76280438 2.16073,-0.05987284 4.45338,0.02223848 6.76618,0.51353791 1.6579,0.3832204 3.12107,0.94041417 4.52981,1.40311147 0,0 2e-5,0 2e-5,0 5.70073,1.8835996 11.86912,2.2211798 18.51637,2.449415 5.64522,0.1565248 11.6095,1.4271291 16.83691,4.5758931 3.27879,2.0160899 6.04304,4.7036279 8.3914,7.6800429 1.42282,1.890562 3.86454,3.161919 6.43811,4.767127 3.53214,2.123724 7.15948,4.041708 10.94587,6.104772 3.67744,2.000985 7.50051,4.085962 11.18702,6.458706 2.58608,1.600281 5.53976,3.512791 7.70129,6.548652 4.43341,6.466626 8.72034,13.444549 13.97324,19.116252 2.01464,2.248618 4.83058,3.892299 7.82767,5.657384 0,0 2e-5,1.7e-5 2e-5,1.7e-5 1.03871,0.625398 2.35317,1.030395 3.79929,1.47756 0,0 2e-5,0 2e-5,0 1.95815,0.584033 3.98685,1.044473 6.06755,1.471195 4.93242,1.009268 9.95386,1.748954 15.0813,2.411336 4.46461,0.575788 8.96739,1.074752 13.50218,1.485086 1.38582,0.12522 2.76378,0.244503 4.13025,0.332824 0.36516,0.02309 0.69949,0.04533 1.00282,0.05218 0.32441,0.04995 0.5568,0.106403 0.69653,0.15892 -2e-5,0 0,0 0,0 0.0592,0.0051 0.12128,0.0154 0.18276,0.02207 0.0255,0.0034 0.0395,0.0017 0.0534,0.0068 0.43793,0.179191 0.97533,0.562309 1.57023,1.171061 0.39981,0.750395 0.43876,1.546995 0.11376,2.355809 -0.88978,1.249871 -1.57165,1.746935 -1.82337,1.629961 -1.22833,0.530131 -2.4028,0.82373 -3.45781,1.047997 -0.25366,0.05388 -0.50026,0.103836 -0.73866,0.151906 -4.84161,1.051264 -9.73661,1.803284 -14.43283,2.623388 -6.14776,1.075556 -12.15023,2.172666 -18.06747,3.544404 0,0 -3e-5,1.7e-5 -3e-5,1.7e-5 -5.37766,1.258048 -10.54961,2.561206 -15.24975,4.740013 -2.76221,1.282836 -5.38183,2.596309 -7.62393,4.284056 -1.3366,0.983249 -2.58658,2.259224 -3.91013,3.586759 -1.69717,1.714006 -3.52921,3.299655 -5.50411,4.703965 -3.76297,2.63824 -7.76521,4.76831 -11.67363,6.7119 -7.0607,1.85749 -13.80753,3.89362 -20.19523,6.6194 -3.74083,1.5968 -7.2928,3.46235 -10.57691,5.64475 -2.34404,1.55594 -4.66149,3.35628 -7.24191,4.94024 -3.03271,1.84836 -6.29411,3.16584 -9.58402,4.06576 0,0 -2e-5,0 -2e-5,0 -1.36109,0.36322 -2.65457,0.50033 -3.81968,0.60318 -1.82434,0.17459 -3.63175,0.26896 -5.39933,0.3371 -4.66255,0.18078 -9.29038,0.18521 -13.76266,0.13326 -4.75237,-0.0547 -9.39391,-0.18267 -13.95865,-0.39894 -3.22041,-0.14986 -6.38293,-0.27716 -9.60831,-0.72337 0,0 -4e-5,-2e-5 -4e-5,-2e-5 -1.5706,-0.22806 -2.99333,-0.67993 -4.28231,-1.11392 -2.03225,-0.67083 -4.00487,-1.43095 -5.90849,-2.20599 -5.12195,-2.08406 -9.99789,-4.37977 -14.57722,-6.73193 -5.03404,-2.58299 -9.67273,-5.19801 -14.01042,-8.16703 -1.83113,-1.25152 -3.58404,-2.55522 -5.20736,-4.03123 -1.19477,-1.06021 -2.38208,-2.28632 -3.22775,-3.8632 -2.53913,-4.911378 -4.91297,-10.593516 -6.81329,-14.871105 -2.12281,-5.871884 -4.5395,-10.853629 -7.11569,-15.105969 0.40111,0.675605 1.84167,1.203598 3.07936,1.775195 1.78195,1.10308 3.78099,1.770029 5.59424,2.21391 10.4013,2.522391 16.34992,-1.295255 16.46599,-1.049708 0.11616,0.24553 -5.65358,4.756213 -16.7972,2.562917 -1.9353,-0.376566 -4.11553,-1.013596 -6.17755,-2.174274 -0.8674,-0.66801 -2.01006,-1.747722 -2.30091,-3.621691 3.15003,4.088135 6.32776,8.824521 9.46041,14.384416 2.01458,4.240177 4.52784,9.887657 7.07869,14.574139 0.56378,1.08062 1.56197,2.0107 2.68126,3.01995 1.50254,1.31941 3.16866,2.50452 4.95956,3.6867 4.24245,2.79609 8.80213,5.26133 13.80716,7.73658 4.54577,2.24557 9.36628,4.43119 14.40226,6.40121 1.87372,0.7325 3.78216,1.44056 5.7108,2.04881 1.287,0.39786 2.50806,0.78589 3.66001,0.92085 0,0 0,0 0,0 2.9937,0.38304 6.03924,0.46314 9.28348,0.58326 4.51764,0.16304 9.11439,0.24072 13.82756,0.24806 4.43921,0.007 9.00344,-0.0402 13.56291,-0.25819 1.73168,-0.0831 3.46268,-0.18752 5.16721,-0.36634 1.15541,-0.1295 2.22005,-0.23395 3.12352,-0.5019 0,0 1e-5,0 1e-5,0 2.97235,-0.84556 5.87084,-2.03441 8.49133,-3.67119 2.30866,-1.43013 4.56403,-3.21499 7.07688,-4.90787 3.51383,-2.36482 7.28392,-4.38002 11.22838,-6.08891 6.52944,-2.83031 13.33231,-4.9216 20.33961,-6.77428 3.68461,-1.88202 7.34176,-3.8587 10.63094,-6.244158 1.73508,-1.238581 3.36369,-2.662494 4.89564,-4.219051 1.30882,-1.33862 2.72216,-2.765698 4.40579,-4.044103 2.66946,-1.99019 5.56024,-3.476491 8.42915,-4.795592 5.20957,-2.40008 10.67833,-3.818844 16.12193,-5.077901 0,0 2e-5,0 2e-5,0 6.05513,-1.413102 12.14106,-2.535341 18.31159,-3.618424 4.75947,-0.836902 9.59468,-1.579326 14.24686,-2.593075 0.25337,-0.05885 0.5004,-0.113417 0.74034,-0.166447 0.99769,-0.220024 1.8674,-0.408538 2.54496,-0.733442 0.25632,-0.344645 0.16661,-0.07561 -0.4919,0.668386 -0.25785,0.662074 -0.22863,1.281484 0.0903,1.892272 0.47883,0.408419 0.81617,0.654616 1.05417,0.717174 0.0263,0.01026 0.0517,0.02378 0.0648,0.03267 0.0318,0.02121 0.059,0.03096 0.085,0.03815 0,0 0,0 0,0 -0.0299,0.06518 0.032,0.11547 0.18644,0.161315 -0.42842,-0.01197 -0.82491,-0.03644 -1.18952,-0.06073 -1.43294,-0.0934 -2.85024,-0.216346 -4.24863,-0.34379 -4.59661,-0.418409 -9.1577,-0.927875 -13.6772,-1.516545 -5.18194,-0.673843 -10.31509,-1.440917 -15.41198,-2.49254 -2.14694,-0.442033 -4.30505,-0.940055 -6.45377,-1.583278 0,0 -10e-6,0 -10e-6,0 -1.52052,-0.439364 -3.16671,-0.992897 -4.78872,-1.919403 0,0 -3e-5,0 -3e-5,0 -3.04096,-1.756704 -6.20799,-3.697439 -8.86582,-6.53211 -5.61398,-6.150652 -9.99818,-13.305559 -14.3056,-19.687508 -1.33272,-2.100287 -3.86755,-3.629303 -6.42003,-5.358602 -3.49062,-2.277768 -7.21355,-4.331269 -10.87642,-6.356682 -3.74427,-2.067751 -7.41559,-4.041947 -11.06398,-6.266839 -2.5134,-1.475506 -5.32923,-3.109967 -7.52248,-5.808863 -2.13094,-2.708425 -4.50822,-5.093417 -7.25296,-6.77829 -4.37433,-2.7507122 -9.68257,-3.8876804 -14.83699,-4.1215095 -6.70875,-0.2545793 -13.25619,-0.7329462 -19.55476,-2.840436 0,0 -2e-5,0 -2e-5,0 -1.5273,-0.5138458 -2.86907,-1.0551647 -4.18158,-1.3602767 -1.73399,-0.4463948 -3.6175,-0.5379147 -5.52252,-0.5350237 -24.99421,5.2377616 -44.14377,20.4592849 -55.86801,32.8424769 0,0 0,1.7e-5 0,1.7e-5 -7.38508,7.793785 -12.45397,14.933005 -16.05457,20.996619 -2.10651,3.548543 -3.52842,6.422611 -4.60256,8.959953 -1.86078,4.411106 -2.19659,6.934421 -2.37254,6.916306 z"
         id="path31"
         sodipodi:nodetypes="ccsssscscssscc" /><path
         style="fill:#1a1a1a;stroke:#1a1a1a;stroke-width:1.5875;stroke-dasharray:none;stroke-opacity:1"
         d="m 601.63285,40.890966 c -0.30891,-0.232273 0.2575,-1.719925 1.81724,-4.14043 1.38536,-2.14988 4.30842,-6.112025 9.19645,-7.974292 1.28114,-0.457942 2.77456,-0.648184 4.34369,-0.374035 1.02804,0.214328 1.83574,0.541114 2.50867,0.79973 1.83885,0.825065 3.06075,2.192766 3.74219,3.540247 1.01825,1.687508 1.6678,3.711997 1.70067,5.892891 -0.009,2.646978 -0.71624,5.090029 -1.64203,7.319916 -0.11307,0.290572 -0.23134,0.582324 -0.35555,0.874486 -0.89264,2.09974 -2.04061,4.110082 -3.57597,5.882729 -2.61304,2.647201 -6.11572,3.104475 -8.85165,2.440708 -2.09162,-0.394289 -4.1145,-1.17669 -5.84763,-2.445806 0,0 0,0 0,0 -2.3742,-1.790814 -3.67787,-4.314779 -4.01883,-6.749157 -0.4198,-2.835099 0.0318,-5.376359 1.19109,-7.292256 2.01983,-3.117989 3.6669,-4.528046 4.057,-4.202543 0.26534,0.221393 -0.59769,2.10891 -1.9023,5.326613 -0.59796,1.462078 -0.48969,3.181951 0.009,5.580748 0.35393,1.534626 1.38636,3.080303 2.96254,4.056248 0,0 0,0 0,0 1.15038,0.750463 2.6335,1.168512 4.33216,1.471075 1.7974,0.170895 3.91941,0.0068 4.61029,-1.17065 1.11605,-1.299823 1.98378,-2.914491 2.76972,-4.727509 0.10931,-0.252133 0.21623,-0.506284 0.32119,-0.761531 0.78191,-2.046915 1.41191,-3.882035 1.40322,-5.603071 0.0328,-1.271768 -0.34908,-2.58129 -0.95147,-3.720653 -0.63582,-0.949976 -1.0417,-1.732668 -1.51991,-1.845315 -0.78656,-0.332705 -1.32655,-0.628528 -1.77908,-0.729097 -0.73273,-0.215234 -1.58971,-0.16542 -2.39129,0.02412 -3.635,0.79778 -6.88317,4.105601 -8.61589,5.774205 -2.00971,1.93533 -3.17832,3.004146 -3.51281,2.752646 z"
         id="path32"
         sodipodi:nodetypes="cssssssc" /></g></g></svg>
