<?xml version="1.0" encoding="UTF-8" standalone="no"?>
<!-- Created with Inkscape (http://www.inkscape.org/) -->

<svg
   width="900"
   height="900"
   viewBox="0 0 238.12499 238.125"
   version="1.1"
   id="svg1"
   xml:space="preserve"
   inkscape:version="1.3.2 (091e20e, 2023-11-25)"
   sodipodi:docname="logo_1.svg"
   xmlns:inkscape="http://www.inkscape.org/namespaces/inkscape"
   xmlns:sodipodi="http://sodipodi.sourceforge.net/DTD/sodipodi-0.dtd"
   xmlns="http://www.w3.org/2000/svg"
   xmlns:svg="http://www.w3.org/2000/svg"><sodipodi:namedview
     id="namedview1"
     pagecolor="#ffffff"
     bordercolor="#000000"
     borderopacity="0.25"
     inkscape:showpageshadow="false"
     inkscape:pageopacity="0.0"
     inkscape:pagecheckerboard="0"
     inkscape:deskcolor="#d1d1d1"
     inkscape:document-units="px"
     borderlayer="true"
     inkscape:zoom="0.22068098"
     inkscape:cx="491.65995"
     inkscape:cy="-376.10853"
     inkscape:window-width="1440"
     inkscape:window-height="847"
     inkscape:window-x="254"
     inkscape:window-y="1105"
     inkscape:window-maximized="1"
     inkscape:current-layer="layer2" /><defs
     id="defs1"><inkscape:path-effect
       effect="skeletal"
       id="path-effect43"
       is_visible="true"
       lpeversion="1"
       pattern="M 0,4.9921382 C 0,2.2364779 2.2364779,0 4.9921382,0 c 2.7556602,0 4.9921381,2.2364779 4.9921381,4.9921382 0,2.7556602 -2.2364779,4.9921381 -4.9921381,4.9921381 C 2.2364779,9.9842763 0,7.7477984 0,4.9921382 Z"
       copytype="single_stretched"
       prop_scale="0.42070441"
       scale_y_rel="false"
       spacing="0"
       normal_offset="0"
       tang_offset="0"
       prop_units="false"
       vertical_pattern="false"
       hide_knot="false"
       fuse_tolerance="0" /><inkscape:path-effect
       effect="skeletal"
       id="path-effect41"
       is_visible="true"
       lpeversion="1"
       pattern="M 0,4.9921382 C 0,2.2364779 2.2364779,0 4.9921382,0 c 2.7556602,0 4.9921381,2.2364779 4.9921381,4.9921382 0,2.7556602 -2.2364779,4.9921381 -4.9921381,4.9921381 C 2.2364779,9.9842763 0,7.7477984 0,4.9921382 Z"
       copytype="single_stretched"
       prop_scale="0.56090623"
       scale_y_rel="false"
       spacing="0"
       normal_offset="0"
       tang_offset="0"
       prop_units="false"
       vertical_pattern="false"
       hide_knot="false"
       fuse_tolerance="0" /><inkscape:path-effect
       effect="skeletal"
       id="path-effect35"
       is_visible="true"
       lpeversion="1"
       pattern="M 0,4.9921382 C 0,2.2364779 2.2364779,0 4.9921382,0 c 2.7556602,0 4.9921381,2.2364779 4.9921381,4.9921382 0,2.7556602 -2.2364779,4.9921381 -4.9921381,4.9921381 C 2.2364779,9.9842763 0,7.7477984 0,4.9921382 Z"
       copytype="single_stretched"
       prop_scale="0.42070441"
       scale_y_rel="false"
       spacing="0"
       normal_offset="0"
       tang_offset="0"
       prop_units="false"
       vertical_pattern="false"
       hide_knot="false"
       fuse_tolerance="0" /><inkscape:path-effect
       effect="skeletal"
       id="path-effect34"
       is_visible="true"
       lpeversion="1"
       pattern="M 0,4.9921382 C 0,2.2364779 2.2364779,0 4.9921382,0 c 2.7556602,0 4.9921381,2.2364779 4.9921381,4.9921382 0,2.7556602 -2.2364779,4.9921381 -4.9921381,4.9921381 C 2.2364779,9.9842763 0,7.7477984 0,4.9921382 Z"
       copytype="single_stretched"
       prop_scale="0.68335128"
       scale_y_rel="false"
       spacing="0"
       normal_offset="0"
       tang_offset="0"
       prop_units="false"
       vertical_pattern="false"
       hide_knot="false"
       fuse_tolerance="0" /><inkscape:path-effect
       effect="skeletal"
       id="path-effect33"
       is_visible="true"
       lpeversion="1"
       pattern="M 0,4.9921382 C 0,2.2364779 2.2364779,0 4.9921382,0 c 2.7556602,0 4.9921381,2.2364779 4.9921381,4.9921382 0,2.7556602 -2.2364779,4.9921381 -4.9921381,4.9921381 C 2.2364779,9.9842763 0,7.7477984 0,4.9921382 Z"
       copytype="single_stretched"
       prop_scale="0.27114169"
       scale_y_rel="false"
       spacing="0"
       normal_offset="0"
       tang_offset="0"
       prop_units="false"
       vertical_pattern="false"
       hide_knot="false"
       fuse_tolerance="0" /><inkscape:path-effect
       effect="skeletal"
       id="path-effect32"
       is_visible="true"
       lpeversion="1"
       pattern="M 0,4.9921382 C 0,2.2364779 2.2364779,0 4.9921382,0 c 2.7556602,0 4.9921381,2.2364779 4.9921381,4.9921382 0,2.7556602 -2.2364779,4.9921381 -4.9921381,4.9921381 C 2.2364779,9.9842763 0,7.7477984 0,4.9921382 Z"
       copytype="single_stretched"
       prop_scale="0.27114169"
       scale_y_rel="false"
       spacing="0"
       normal_offset="0"
       tang_offset="0"
       prop_units="false"
       vertical_pattern="false"
       hide_knot="false"
       fuse_tolerance="0" /><inkscape:path-effect
       effect="skeletal"
       id="path-effect31"
       is_visible="true"
       lpeversion="1"
       pattern="M 0,4.9921382 C 0,2.2364779 2.2364779,0 4.9921382,0 c 2.7556602,0 4.9921381,2.2364779 4.9921381,4.9921382 0,2.7556602 -2.2364779,4.9921381 -4.9921381,4.9921381 C 2.2364779,9.9842763 0,7.7477984 0,4.9921382 Z"
       copytype="single_stretched"
       prop_scale="0.27114169"
       scale_y_rel="false"
       spacing="0"
       normal_offset="0"
       tang_offset="0"
       prop_units="false"
       vertical_pattern="false"
       hide_knot="false"
       fuse_tolerance="0" /><inkscape:path-effect
       effect="spiro"
       id="path-effect30"
       is_visible="true"
       lpeversion="1" /><inkscape:path-effect
       effect="simplify"
       id="path-effect29"
       is_visible="true"
       lpeversion="1.3"
       threshold="17.2414"
       steps="1"
       smooth_angles="360"
       helper_size="0"
       simplify_individual_paths="false"
       simplify_just_coalesce="false" /><inkscape:path-effect
       effect="skeletal"
       id="path-effect28"
       is_visible="true"
       lpeversion="1"
       pattern="M 0,4.9921382 C 0,2.2364779 2.2364779,0 4.9921382,0 c 2.7556602,0 4.9921381,2.2364779 4.9921381,4.9921382 0,2.7556602 -2.2364779,4.9921381 -4.9921381,4.9921381 C 2.2364779,9.9842763 0,7.7477984 0,4.9921382 Z"
       copytype="single_stretched"
       prop_scale="0.27114169"
       scale_y_rel="false"
       spacing="0"
       normal_offset="0"
       tang_offset="0"
       prop_units="false"
       vertical_pattern="false"
       hide_knot="false"
       fuse_tolerance="0" /><inkscape:path-effect
       effect="spiro"
       id="path-effect27"
       is_visible="true"
       lpeversion="1" /><inkscape:path-effect
       effect="simplify"
       id="path-effect26"
       is_visible="true"
       lpeversion="1.3"
       threshold="17.2414"
       steps="1"
       smooth_angles="360"
       helper_size="0"
       simplify_individual_paths="false"
       simplify_just_coalesce="false" /><inkscape:path-effect
       effect="skeletal"
       id="path-effect17"
       is_visible="true"
       lpeversion="1"
       pattern="M 0,4.9921382 C 0,2.2364779 2.2364779,0 4.9921382,0 c 2.7556602,0 4.9921381,2.2364779 4.9921381,4.9921382 0,2.7556602 -2.2364779,4.9921381 -4.9921381,4.9921381 C 2.2364779,9.9842763 0,7.7477984 0,4.9921382 Z"
       copytype="single_stretched"
       prop_scale="0.27114169"
       scale_y_rel="false"
       spacing="0"
       normal_offset="0"
       tang_offset="0"
       prop_units="false"
       vertical_pattern="false"
       hide_knot="false"
       fuse_tolerance="0" /><inkscape:path-effect
       effect="spiro"
       id="path-effect16"
       is_visible="true"
       lpeversion="1" /><inkscape:path-effect
       effect="simplify"
       id="path-effect15"
       is_visible="true"
       lpeversion="1.3"
       threshold="17.2414"
       steps="1"
       smooth_angles="360"
       helper_size="0"
       simplify_individual_paths="false"
       simplify_just_coalesce="false" /><inkscape:path-effect
       effect="powerstroke"
       id="path-effect10"
       is_visible="true"
       lpeversion="1.3"
       scale_width="1"
       interpolator_type="CentripetalCatmullRom"
       interpolator_beta="0.75"
       start_linecap_type="round"
       end_linecap_type="round"
       offset_points="76.177492,4.4139755"
       linejoin_type="spiro"
       miter_limit="4"
       not_jump="true"
       sort_points="true"
       message="stroke:none;stroke-width:1;fill:#ececec;opacity:1" /><inkscape:path-effect
       effect="simplify"
       id="path-effect9"
       is_visible="true"
       lpeversion="1.3"
       threshold="0.012"
       steps="1"
       smooth_angles="0"
       helper_size="0"
       simplify_individual_paths="false"
       simplify_just_coalesce="false"
       step="1" /><inkscape:path-effect
       effect="powerstroke"
       id="path-effect8"
       is_visible="true"
       lpeversion="1.3"
       scale_width="1"
       interpolator_type="CentripetalCatmullRom"
       interpolator_beta="0.75"
       start_linecap_type="round"
       end_linecap_type="round"
       offset_points="9.7531967,4.4139755"
       linejoin_type="spiro"
       miter_limit="4"
       not_jump="true"
       sort_points="true"
       message="stroke:none;stroke-width:1;fill:#142948;opacity:1" /><inkscape:path-effect
       effect="simplify"
       id="path-effect7"
       is_visible="true"
       lpeversion="1.3"
       threshold="0.012"
       steps="1"
       smooth_angles="0"
       helper_size="0"
       simplify_individual_paths="false"
       simplify_just_coalesce="false"
       step="1" /><inkscape:path-effect
       effect="powerstroke"
       id="path-effect6"
       is_visible="true"
       lpeversion="1.3"
       scale_width="1"
       interpolator_type="CentripetalCatmullRom"
       interpolator_beta="0.75"
       start_linecap_type="round"
       end_linecap_type="round"
       offset_points="37.855876,4.4139755"
       linejoin_type="spiro"
       miter_limit="4"
       not_jump="true"
       sort_points="true"
       message="stroke:none;stroke-width:1;fill:#ececec;opacity:1" /><inkscape:path-effect
       effect="simplify"
       id="path-effect5"
       is_visible="true"
       lpeversion="1.3"
       threshold="0.012"
       steps="1"
       smooth_angles="0"
       helper_size="0"
       simplify_individual_paths="false"
       simplify_just_coalesce="false"
       step="1" /><inkscape:path-effect
       effect="powerstroke"
       id="path-effect4"
       is_visible="true"
       lpeversion="1.3"
       scale_width="1"
       interpolator_type="CentripetalCatmullRom"
       interpolator_beta="0.75"
       start_linecap_type="round"
       end_linecap_type="round"
       offset_points="30.231361,4.4139755"
       linejoin_type="spiro"
       miter_limit="4"
       not_jump="true"
       sort_points="true"
       message="stroke:none;stroke-width:1;fill:#142948;opacity:1" /><inkscape:path-effect
       effect="simplify"
       id="path-effect3"
       is_visible="true"
       lpeversion="1.3"
       threshold="0.012"
       steps="1"
       smooth_angles="0"
       helper_size="0"
       simplify_individual_paths="false"
       simplify_just_coalesce="false"
       step="1" /><inkscape:path-effect
       effect="skeletal"
       id="path-effect2"
       is_visible="true"
       lpeversion="1"
       pattern="M 0,4.9921382 C 0,2.2364779 2.2364779,0 4.9921382,0 c 2.7556602,0 4.9921381,2.2364779 4.9921381,4.9921382 0,2.7556602 -2.2364779,4.9921381 -4.9921381,4.9921381 C 2.2364779,9.9842763 0,7.7477984 0,4.9921382 Z"
       copytype="single_stretched"
       prop_scale="0.27114169"
       scale_y_rel="false"
       spacing="0"
       normal_offset="0"
       tang_offset="0"
       prop_units="false"
       vertical_pattern="false"
       hide_knot="false"
       fuse_tolerance="0" /><inkscape:path-effect
       effect="skeletal"
       id="path-effect1"
       is_visible="true"
       lpeversion="1"
       pattern="M 0,4.9921382 C 0,2.2364779 2.2364779,0 4.9921382,0 c 2.7556602,0 4.9921381,2.2364779 4.9921381,4.9921382 0,2.7556602 -2.2364779,4.9921381 -4.9921381,4.9921381 C 2.2364779,9.9842763 0,7.7477984 0,4.9921382 Z"
       copytype="single_stretched"
       prop_scale="0.38758289"
       scale_y_rel="false"
       spacing="0"
       normal_offset="0"
       tang_offset="0"
       prop_units="false"
       vertical_pattern="false"
       hide_knot="false"
       fuse_tolerance="0" /><inkscape:path-effect
       effect="skeletal"
       id="path-effect32-2"
       is_visible="true"
       lpeversion="1"
       pattern="M 0,4.9921382 C 0,2.2364779 2.2364779,0 4.9921382,0 c 2.7556602,0 4.9921381,2.2364779 4.9921381,4.9921382 0,2.7556602 -2.2364779,4.9921381 -4.9921381,4.9921381 C 2.2364779,9.9842763 0,7.7477984 0,4.9921382 Z"
       copytype="single_stretched"
       prop_scale="0.27114169"
       scale_y_rel="false"
       spacing="0"
       normal_offset="0"
       tang_offset="0"
       prop_units="false"
       vertical_pattern="false"
       hide_knot="false"
       fuse_tolerance="0" /><inkscape:path-effect
       effect="skeletal"
       id="path-effect33-4"
       is_visible="true"
       lpeversion="1"
       pattern="M 0,4.9921382 C 0,2.2364779 2.2364779,0 4.9921382,0 c 2.7556602,0 4.9921381,2.2364779 4.9921381,4.9921382 0,2.7556602 -2.2364779,4.9921381 -4.9921381,4.9921381 C 2.2364779,9.9842763 0,7.7477984 0,4.9921382 Z"
       copytype="single_stretched"
       prop_scale="0.27114169"
       scale_y_rel="false"
       spacing="0"
       normal_offset="0"
       tang_offset="0"
       prop_units="false"
       vertical_pattern="false"
       hide_knot="false"
       fuse_tolerance="0" /></defs><g
     inkscape:groupmode="layer"
     id="layer2"
     inkscape:label="logo"><circle
       style="display:inline;fill:#ffe6d5;fill-opacity:1;stroke:#006680;stroke-width:8.24191;stroke-dasharray:none;stroke-opacity:1"
       id="path102"
       cx="119.0625"
       cy="119.0625"
       r="114.94154" /><g
       id="g102"
       transform="matrix(3.7833094,0,0,3.7833094,-2025.654,-1751.5039)"
       style="display:inline;fill:#006680"><path
         style="fill:#006680;stroke:none;stroke-width:1.20537;stroke-dasharray:none;stroke-opacity:1"
         d="m 545.56481,495.85385 c -0.13477,-0.0325 -0.25147,-1.5177 1.08039,-3.79013 0,0 0,0 0,0 0.98395,-1.66737 2.56757,-3.82097 4.9841,-5.91499 1.78821,-1.56371 4.31468,-3.29796 7.40993,-3.86818 0.79506,-0.11744 1.54002,0.016 2.18247,0.24305 0.57595,0.18514 1.0449,0.41276 1.44754,0.48128 0.22708,0.0473 0.4959,0.0611 0.80821,0.0829 0,0 10e-6,0 10e-6,0 0.37826,0.0234 0.76331,0.0362 1.16215,0.0472 0.33489,0.009 0.77254,0.0177 1.10742,0.0268 0.19899,0.003 0.45648,0.002 0.76562,0.0408 0.32848,0.0564 0.5643,0.14328 0.71442,0.21182 0.26084,0.10247 0.51083,0.21445 0.75244,0.33062 0.23392,0.11188 0.47283,0.23386 0.71273,0.37057 0.12002,0.0538 0.32759,0.17619 0.58612,0.4105 0,0 0,0 0,0 0.16499,0.16547 0.28314,0.30764 0.37492,0.41058 0,0 0,1e-5 0,1e-5 0.17284,0.19128 0.34495,0.37563 0.51971,0.54656 0,0 0,0 0,0 0.41401,0.36979 0.74466,0.71027 1.0485,0.77138 0.53243,0.17021 1.11049,0.37544 1.69127,0.68151 1.05527,0.58299 1.97362,1.29807 2.85584,2.02128 -0.003,-0.004 1.07541,1.29484 1.07197,1.29071 0.26678,0.33814 0.53588,0.69087 0.79575,1.06274 0.18853,0.25774 0.41219,0.58848 0.60261,1.02093 0.1621,0.48772 0.71169,0.88741 1.33638,1.22355 0.91185,0.45618 2.00356,0.64593 3.16761,0.76606 1.01449,0.0949 2.05947,0.19406 3.10849,0.32888 0.30017,0.0383 0.61309,0.0816 0.93571,0.13983 0.16855,0.0263 0.3927,0.0715 0.66289,0.16265 0.0614,0.0103 0.1906,0.0728 0.38116,0.19612 0.17537,0.004 0.33543,0.31646 0.45986,0.93624 -0.15761,0.57427 -0.31879,0.85664 -0.46401,0.84789 -0.13891,0.0914 -0.24294,0.1478 -0.30907,0.17289 -0.0137,0.005 -0.0258,0.009 -0.0362,0.0116 -0.23009,0.0856 -0.42085,0.13338 -0.56472,0.16278 -0.23848,0.0541 -0.46846,0.0981 -0.68782,0.13841 -1.41158,0.2608 -2.73198,0.46782 -4.04909,0.75682 -1.55349,0.33525 -3.01191,0.70566 -4.31081,1.33146 2e-4,1.1e-4 3e-4,2.1e-4 6.1e-4,2.8e-4 6e-4,2.5e-4 10e-4,6.1e-4 0.002,6.1e-4 0.002,9.1e-4 0.004,0.002 0.007,0.002 0,0 0,0 0,0 0,0 0,0 0,0 -0.063,0.0458 -0.12582,0.0911 -0.18847,0.13618 v 0 c -0.21012,0.1511 -0.42075,0.30046 -0.63196,0.44805 -0.52624,0.36854 -1.0652,0.73822 -1.64326,1.08265 -0.63293,0.3755 -1.27527,0.80172 -1.97008,1.19921 -0.67706,0.38516 -1.3827,0.68452 -2.09301,0.91302 0,0 0,0 0,0 -0.22379,0.0694 -0.48097,0.18616 -0.77771,0.30776 0,0 -10e-6,0 -10e-6,0 -0.50597,0.21009 -1.00777,0.42706 -1.50351,0.64663 -1.13495,0.50429 -2.19024,0.97631 -3.18208,1.53617 -0.83007,0.44063 -1.654,0.56542 -2.32363,0.63455 -1.0147,0.13529 -2.01448,0.18469 -2.96789,0.19714 -0.97952,0.0139 -1.93589,-0.0111 -2.87694,-0.0887 -0.3785,-0.0309 -0.75988,-0.0715 -1.14559,-0.13402 0,0 0,0 0,0 -0.25165,-0.0364 -0.54827,-0.0935 -0.87477,-0.21248 -0.16874,-0.0654 -0.31885,-0.13249 -0.45195,-0.19136 0,0 0,0 0,0 -0.27847,-0.12213 -0.55279,-0.24606 -0.82151,-0.36951 -0.80713,-0.37073 -1.57949,-0.74421 -2.32336,-1.12478 -0.86047,-0.43975 -1.66207,-0.87503 -2.4318,-1.35975 -0.33226,-0.20878 -0.65739,-0.42754 -0.97084,-0.67408 -0.22665,-0.17098 -0.47273,-0.38688 -0.69262,-0.68021 -0.3468,-0.48157 -0.62925,-1.00527 -0.80105,-1.57531 -0.14488,-0.49607 -0.22928,-0.8906 -0.38609,-1.25966 -0.25999,-0.62226 -0.60752,-1.34082 -0.85883,-1.88429 -0.0949,-0.20371 -0.19258,-0.40827 -0.27616,-0.6422 -0.0214,-0.0337 -0.0514,-0.13349 -0.0664,-0.29634 0,0 -1e-5,0 -1e-5,0 -0.0463,-0.041 0.0108,-0.17131 0.17602,-0.3808 0.26135,-0.1077 0.40881,-0.12396 0.43833,-0.0599 0.79222,0.31836 1.28049,0.54092 1.86153,0.56099 0.62389,0.0364 1.42022,-0.151 1.7273,-0.20937 0.41039,-0.078 0.63002,-0.0975 0.64761,-0.0433 0.0169,0.052 -0.16657,0.17145 -0.54729,0.35105 -0.31609,0.14912 -1.02304,0.4612 -1.81494,0.52934 -0.7116,0.0452 -1.36814,-0.13404 -2.16805,-0.39683 0.008,0.0561 0.12954,0.0333 0.3728,-0.0605 0.14717,-0.19557 0.20253,-0.29928 0.15698,-0.31746 0,0 0,0 0,0 -0.0115,-0.0572 0.002,-0.0609 0.02,0.005 0.076,0.16946 0.17575,0.3359 0.29031,0.54144 0.29657,0.52582 0.68632,1.20072 1.01342,1.85671 0.22743,0.46864 0.3572,0.90599 0.51446,1.3534 0.1393,0.40157 0.38567,0.78656 0.69577,1.18229 0.0949,0.12705 0.26294,0.24422 0.46941,0.39914 0.2707,0.19299 0.56604,0.37004 0.88649,0.55239 0.74175,0.42097 1.52153,0.80034 2.38144,1.19825 0.73948,0.34168 1.50631,0.67753 2.30908,1.01273 0.26724,0.11157 0.53782,0.22282 0.80981,0.33135 0,0 0,10e-6 0,10e-6 0.14526,0.0578 0.27653,0.11197 0.39366,0.15213 0.13162,0.0501 0.32024,0.0712 0.55896,0.10741 0,0 0,0 0,0 0.32657,0.043 0.6654,0.0678 1.02048,0.0868 0.88059,0.0466 1.78267,0.0443 2.71831,0.007 0.91174,-0.0371 1.84288,-0.10449 2.75509,-0.24873 0.67058,-0.12531 1.28341,-0.19538 1.6593,-0.45032 1.07821,-0.63438 2.18267,-1.15639 3.31558,-1.67936 0.50292,-0.2328 1.01527,-0.46392 1.53562,-0.6892 0,0 10e-6,0 10e-6,0 0.26177,-0.11531 0.5664,-0.25476 0.92388,-0.37695 0,0 0,0 0,0 0.59678,-0.20228 1.1759,-0.45537 1.71259,-0.77236 0.61438,-0.35987 1.24074,-0.78661 1.9286,-1.20462 0.50009,-0.30332 0.99378,-0.65064 1.50997,-1.01716 0.20247,-0.14411 0.4046,-0.29 0.60645,-0.43763 v 0 c 0.0602,-0.044 0.12007,-0.088 0.17967,-0.13202 0,0 10e-6,0 10e-6,0 0,0 0,0 0,0 -0.007,0.005 0.11449,-0.0762 0.10723,-0.0713 -0.002,10e-4 0.0303,-0.0202 0.0285,-0.019 0.002,-9.2e-4 0.009,-0.006 0.0108,-0.007 1.58201,-0.76871 3.2448,-1.23442 4.91126,-1.61064 1.39414,-0.31007 2.74118,-0.52585 4.11702,-0.78077 0.21171,-0.0395 0.41384,-0.0779 0.60406,-0.12151 0.13827,-0.0349 0.23141,-0.0528 0.27139,-0.0727 0.003,-0.003 0.004,-0.004 0.004,-0.004 -0.002,-10e-4 -0.0431,0.0256 -0.1263,0.0763 -0.10718,-0.0365 -0.22881,0.2095 -0.3844,0.73674 0.12642,0.57355 0.2485,0.84806 0.38656,0.82487 0.11991,0.0716 0.16612,0.10209 0.14517,0.083 -0.0526,-0.0243 -0.16804,-0.0405 -0.33602,-0.0754 -0.26403,-0.0484 -0.54209,-0.0866 -0.83081,-0.12442 -1.00313,-0.13069 -2.02591,-0.22995 -3.0391,-0.32885 -1.28833,-0.11431 -2.61831,-0.3792 -3.87109,-0.98389 -0.94,-0.43072 -1.81368,-1.19119 -2.30711,-2.28349 -0.0589,-0.16842 -0.21267,-0.3774 -0.39122,-0.65117 -0.21919,-0.32176 -0.45807,-0.64089 -0.70465,-0.96122 -0.004,-0.005 -0.89998,-1.13865 -0.90361,-1.14324 -0.8147,-0.66402 -1.57237,-1.27304 -2.38675,-1.70959 -0.39283,-0.22485 -0.86493,-0.39359 -1.36724,-0.56831 -0.81111,-0.3107 -1.37595,-0.81066 -1.77706,-1.256 0,0 -10e-6,0 -10e-6,0 -0.20941,-0.21324 -0.404,-0.4288 -0.58776,-0.64073 0,0 -10e-6,0 -10e-6,0 -0.12966,-0.14744 -0.21956,-0.2642 -0.28955,-0.33371 0,0 0,-10e-6 0,-10e-6 0.0329,0.009 -0.048,-0.0203 -0.2021,-0.12628 -0.18676,-0.11198 -0.38506,-0.21787 -0.5903,-0.32185 -0.21229,-0.10693 -0.41866,-0.20527 -0.62243,-0.28997 -0.17778,-0.0636 -0.27027,-0.11615 -0.2893,-0.10944 -0.13534,-0.0252 -0.33177,-0.0248 -0.57733,-0.039 -0.36782,-0.0182 -0.73791,-0.0339 -1.10952,-0.053 -0.40607,-0.0208 -0.81177,-0.0447 -1.22241,-0.0805 0,0 -10e-6,0 -10e-6,0 -0.31304,-0.0251 -0.66053,-0.0585 -1.03757,-0.14058 -0.66053,-0.15898 -1.20172,-0.42272 -1.6263,-0.57784 -0.53095,-0.17237 -0.99882,-0.30505 -1.38456,-0.23034 -2.66618,0.36739 -5.06604,1.89126 -6.84466,3.27245 -2.39623,1.87926 -4.04811,3.82946 -5.15364,5.34597 0,0 0,0 0,0 -1.40446,1.8974 -1.60081,3.39269 -1.73558,3.36018 z"
         id="path33-2"
         sodipodi:nodetypes="csssssscsscsssssscc" /><path
         style="fill:#006680;stroke:none;stroke-width:1.20537;stroke-dasharray:none;stroke-opacity:1"
         d="m 554.48111,489.33262 c 0.0462,0.0183 0.0677,0.0951 0.067,0.22279 3.1e-4,0.0783 -0.0112,0.17193 9.2e-4,0.25203 v 0 c -0.0305,-0.0232 -0.0638,-0.0654 -0.0966,-0.13044 v 0 c -0.042,0.0116 -0.0805,0.0245 -0.11,0.0285 -0.13948,0.0192 -0.21555,-0.0285 -0.15404,-0.10667 0.0754,-0.16717 0.14724,-0.38419 0.26462,-0.66294 0.19707,-0.40148 0.55647,-0.73262 1.00259,-0.93272 0.15184,-0.0753 0.30752,-0.13997 0.46704,-0.19798 0.0512,-0.0187 0.0992,-0.0356 0.13998,-0.0512 0,0 0,0 0,0 0.0611,-0.0322 0.0417,-0.0171 -0.0696,0.0354 0,0 0,0 0,0 0.27578,-0.13383 0.45239,-0.16497 0.48817,-0.13109 0,0 0,0 0,0 0.15724,-0.005 0.31076,0.008 0.45743,0.0364 0.32858,0.0402 0.7135,0.21487 1.02791,0.60732 0.5464,0.86157 0.51983,1.94537 0.0632,2.81979 -0.0384,0.11745 -0.0889,0.23808 -0.15237,0.35816 -0.28361,0.53672 -0.79959,1.01568 -1.53958,1.18405 -0.62886,0.12586 -1.36216,0.0203 -1.96254,-0.44318 -0.33147,-0.3039 -0.50595,-0.6858 -0.55228,-1.05633 0,0 0,0 0,0 -0.0511,-0.4683 0.0184,-0.87974 0.0833,-1.18868 0.0939,-0.48422 0.35446,-0.82996 0.60986,-1.04644 0.69197,-0.57871 1.1521,-0.68426 1.23753,-0.57882 0.12658,0.15624 -0.27435,0.452 -0.70518,1.07825 -0.12216,0.18548 -0.23437,0.42701 -0.21818,0.64842 -0.003,0.31044 -0.0184,0.65478 0.0534,0.90476 0,0 0,0 0,0 0.0423,0.14527 0.12377,0.28804 0.23086,0.34836 0.17295,0.17919 0.56167,0.13149 1.04375,0.0964 0.17537,0.0359 0.34135,-0.2452 0.56188,-0.60063 0.0494,-0.0796 0.10018,-0.1606 0.15348,-0.24068 0.24735,-0.64368 0.37897,-1.27378 0.11056,-1.62164 0.0117,-0.055 -0.1324,-0.10831 -0.29387,-0.17979 -0.077,-0.0225 -0.14751,-0.0386 -0.21173,-0.0442 0,0 0,0 0,0 -0.11135,0.0383 -0.0522,-0.0132 0.10149,-0.0698 0,0 -10e-6,0 -10e-6,0 -0.15424,0.0811 -0.22615,0.10543 -0.21396,0.0881 0,0 0,0 0,0 -0.0556,0.0135 -0.10609,0.0243 -0.14947,0.0339 -0.14202,0.0318 -0.26998,0.0636 -0.38993,0.10153 -0.35356,0.13306 -0.59111,0.22679 -0.72344,0.40842 -0.18189,0.24697 -0.31937,0.43333 -0.50414,0.60558 0.0227,-0.0268 -0.0796,1.8e-4 -0.27828,0.014 -0.0417,0.003 -0.0826,-3.6e-4 -0.12547,-4.5e-4 v 0 c -0.0341,-0.0904 -0.0622,-0.15686 -0.088,-0.20411 v 0 c 0.0535,-0.12897 0.12449,-0.21597 0.17122,-0.26634 0.0878,-0.0952 0.1562,-0.13634 0.20239,-0.11799 z"
         id="path34-9"
         sodipodi:nodetypes="csssssssc" /></g></g></svg>
